<svg width="36" height="31" viewBox="0 0 36 31" fill="none" xmlns="http://www.w3.org/2000/svg">
<path d="M17.9271 0C12.5471 0 7.4164 4.33139 6.46804 9.67513C5.51969 15.0183 9.11192 19.3503 14.4919 19.3503L24.233 19.3586L25.5871 19.353C27.8962 19.353 30.0981 17.4943 30.5049 15.2009C30.9123 12.9076 29.3705 11.0488 27.0613 11.0488L25.7101 11.041L19.6343 11.0299C19.0744 11.0288 18.5507 11.3224 18.2764 11.807C17.9388 12.4036 17.746 13.0902 17.746 13.8211C17.746 12.665 17.2643 11.616 16.492 10.8623C15.737 10.123 14.7031 9.6657 13.5642 9.6657C15.8672 9.6657 17.7538 7.8086 17.7538 5.52135C17.7538 6.27008 17.9561 6.97329 18.3082 7.58048C18.5625 8.01839 19.0297 8.29146 19.5388 8.29035L28.9681 8.27703L30.506 8.26538C32.0574 8.22042 33.2024 7.3285 33.4483 7.12925C34.9058 5.94872 35.2132 4.4324 35.2635 4.16322L36 0.0122105L17.9271 0Z" fill="url(#paint0_linear_2_139)"/>
<path d="M28.4914 21.4133C27.5922 22.1026 26.688 22.1154 26.4952 22.1137L16.2304 22.122L5.80692 22.1409C5.537 22.1287 4.05383 22.0882 2.60476 23.226C1.03274 24.4603 0.7427 26.1065 0.702463 26.3585L0 30.4002L1.1188 30.4013L12.1677 30.4041L13.2887 30.4052C13.2887 30.4052 19.8819 30.4318 19.9288 30.3996L23.6837 30.4252C25.0774 30.4124 26.1929 29.6892 26.4779 29.4872C28.2315 28.2423 28.5467 26.3852 28.5786 26.1881L29.1503 23.1133H29.1514L29.7907 19.3264C29.7482 19.5684 29.5158 20.6279 28.4914 21.4127V21.4133Z" fill="url(#paint1_linear_2_139)"/>
<defs>
<linearGradient id="paint0_linear_2_139" x1="6.31604" y1="9.67902" x2="36" y2="9.67902" gradientUnits="userSpaceOnUse">
<stop stop-color="#00786E"/>
<stop offset="1" stop-color="#D0F161"/>
</linearGradient>
<linearGradient id="paint1_linear_2_139" x1="0" y1="24.8761" x2="29.7907" y2="24.8761" gradientUnits="userSpaceOnUse">
<stop stop-color="#00786E"/>
<stop offset="1" stop-color="#D0F161"/>
</linearGradient>
</defs>
</svg>
