<svg width="8" height="10" viewBox="0 0 8 10" fill="none" xmlns="http://www.w3.org/2000/svg">
<path d="M0.00338998 6.39C0.0576285 5.84333 0.223734 5.29667 0.545775 4.84333C0.569505 4.82667 0.559335 4.85333 0.559335 4.87C0.518656 5.27667 0.613573 5.87667 1.11189 5.94667C0.786459 5.25333 0.766119 4.40667 1.00341 3.68C1.02375 3.62 1.05765 3.46333 1.08477 3.49333C1.08477 3.69667 1.3085 4.32 1.72207 4.45667C1.73563 4.44333 1.66444 4.15667 1.66105 4.11C1.61699 3.79 1.63394 3.39 1.73563 3.08333C1.85428 2.73333 2.12208 2.42333 2.47463 2.29C2.4848 2.3 2.41022 2.51333 2.40344 2.55C2.29497 3.00333 2.37633 3.62 2.69837 3.98C2.80345 4.1 3.03736 4.25 3.03736 3.97333C3.03736 3.64667 2.81362 3.24667 2.73226 2.92C2.47802 1.89667 2.87464 0.963333 3.6611 0.293333C3.78653 0.186667 3.9289 0.0833333 4.06789 0C4.00348 0.14 3.91534 0.27 3.85771 0.413333C3.65432 0.916667 3.70517 1.29667 4.07467 1.70333C4.31874 1.97333 4.59671 2.14667 4.74587 2.49667C4.90181 2.86667 4.94926 3.32333 4.94587 3.72L5.83064 2.38C5.85776 2.37333 5.84759 2.39333 5.85098 2.41C5.86454 2.60333 5.8442 2.80333 5.86454 2.99667C5.90183 3.35667 6.01708 3.72 6.1459 4.05333C6.18319 4.01667 6.18319 3.94 6.20014 3.88667C6.26455 3.66667 6.36624 3.38667 6.5154 3.20667C6.52896 3.19333 6.6171 3.09667 6.63066 3.11333C6.58998 3.42667 6.70524 3.78333 6.83744 4.07C6.94592 4.31 7.11202 4.52 7.21033 4.76667C7.43746 5.33 7.40695 5.95667 7.19338 6.52C7.55949 6.25667 7.59678 5.72333 7.57644 5.31333C7.57305 5.22 7.53915 5.1 7.53915 5.01333C7.53915 4.98667 7.52898 4.96 7.56627 4.97C7.66458 5.22 7.77645 5.46667 7.84763 5.72667C7.91882 5.98667 7.9595 6.24333 7.98662 6.50333C7.99001 6.54333 8.00696 6.71 7.99679 6.79333C7.95272 6.98333 7.96289 7.22 7.91882 7.42333C7.5561 9.10667 5.91878 9.91 4.29501 10H3.55601C1.71529 9.88333 0.0169496 8.84333 0.0169496 6.90333C0.0169496 6.83667 0 6.81667 0 6.69" fill="#157A6E"/>
</svg>
