<svg width="16" height="14" viewBox="0 0 16 14" fill="none" xmlns="http://www.w3.org/2000/svg">
<path fill-rule="evenodd" clip-rule="evenodd" d="M12.8 0.777778V3.11111H15.2C15.4122 3.11111 15.6157 3.19306 15.7657 3.33892C15.9157 3.48478 16 3.68261 16 3.88889V11.6667C16 12.2855 15.7471 12.879 15.2971 13.3166C14.847 13.7542 14.2365 14 13.6 14H2.4C1.76348 14 1.15303 13.7542 0.702944 13.3166C0.252856 12.879 0 12.2855 0 11.6667V0.777778C0 0.571498 0.0842854 0.373667 0.234315 0.227806C0.384344 0.0819442 0.587827 0 0.8 0H12C12.2122 0 12.4157 0.0819442 12.5657 0.227806C12.7157 0.373667 12.8 0.571498 12.8 0.777778ZM14.4 11.6667C14.4 11.8729 14.3157 12.0708 14.1657 12.2166C14.0157 12.3625 13.8122 12.4444 13.6 12.4444C13.3878 12.4444 13.1843 12.3625 13.0343 12.2166C12.8843 12.0708 12.8 11.8729 12.8 11.6667V4.66667H14.4V11.6667ZM3.2 3.88889C3.2 3.68261 3.28429 3.48478 3.43431 3.33892C3.58434 3.19306 3.78783 3.11111 4 3.11111H8.8C9.01217 3.11111 9.21566 3.19306 9.36569 3.33892C9.51571 3.48478 9.6 3.68261 9.6 3.88889C9.6 4.09517 9.51571 4.293 9.36569 4.43886C9.21566 4.58472 9.01217 4.66667 8.8 4.66667H4C3.78783 4.66667 3.58434 4.58472 3.43431 4.43886C3.28429 4.293 3.2 4.09517 3.2 3.88889ZM4.8 7C4.8 6.79372 4.88429 6.59589 5.03431 6.45003C5.18434 6.30417 5.38783 6.22222 5.6 6.22222H8.8C9.01217 6.22222 9.21566 6.30417 9.36569 6.45003C9.51571 6.59589 9.6 6.79372 9.6 7C9.6 7.20628 9.51571 7.40411 9.36569 7.54997C9.21566 7.69583 9.01217 7.77778 8.8 7.77778H5.6C5.38783 7.77778 5.18434 7.69583 5.03431 7.54997C4.88429 7.40411 4.8 7.20628 4.8 7Z" fill="#F3FCF7"/>
</svg>
