<svg width="14" height="14" viewBox="0 0 14 14" fill="none" xmlns="http://www.w3.org/2000/svg">
<path fill-rule="evenodd" clip-rule="evenodd" d="M10.108 0.220762C10.2169 0.115323 10.3557 0.0435105 10.507 0.0144472C10.6582 -0.0146162 10.815 0.000381182 10.9573 0.0575341L13.1631 0.940767C13.3533 1.01661 13.5047 1.16217 13.584 1.34555C13.6633 1.52892 13.6641 1.73518 13.5862 1.91913L12.685 4.04911C12.6268 4.18665 12.5277 4.30442 12.4001 4.38753C12.2725 4.47063 12.1223 4.51533 11.9684 4.51598C11.8146 4.51662 11.664 4.47317 11.5357 4.39114C11.4074 4.3091 11.3072 4.19216 11.2477 4.05512L10.892 3.23397L1.93407 6.93013C1.84011 6.96892 1.73914 6.98947 1.63696 6.99058C1.53477 6.9917 1.43335 6.97337 1.3385 6.93664C1.24364 6.89991 1.15721 6.8455 1.08413 6.77651C1.01106 6.70752 0.952767 6.62532 0.912593 6.53458C0.872418 6.44384 0.851145 6.34635 0.849988 6.24767C0.848832 6.14899 0.867814 6.05106 0.905852 5.95947C0.943889 5.86787 1.00024 5.78441 1.07168 5.71385C1.14312 5.64328 1.22825 5.58699 1.32222 5.5482L10.2905 1.84803L9.94207 1.04191C9.88227 0.904579 9.86612 0.753178 9.89567 0.60696C9.92521 0.460741 9.99912 0.32631 10.108 0.220762ZM12.963 5.48812C13.238 5.48812 13.5018 5.59362 13.6963 5.78142C13.8907 5.96922 14 6.22393 14 6.48951V13.4993C14 13.6321 13.9454 13.7594 13.8481 13.8533C13.7509 13.9472 13.619 14 13.4815 14H10.8889C10.7514 14 10.6195 13.9472 10.5222 13.8533C10.425 13.7594 10.3704 13.6321 10.3704 13.4993V6.48951C10.3704 6.22393 10.4796 5.96922 10.6741 5.78142C10.8686 5.59362 11.1324 5.48812 11.4074 5.48812H12.963ZM8.51096 7.28262C8.31636 7.09518 8.05265 6.99 7.77778 6.99021H6.22222C5.94718 6.99021 5.68341 7.09572 5.48893 7.28352C5.29444 7.47131 5.18518 7.72602 5.18518 7.99161V13.4993C5.18518 13.6321 5.23981 13.7594 5.33706 13.8533C5.4343 13.9472 5.56618 14 5.7037 14H8.2963C8.43382 14 8.5657 13.9472 8.66294 13.8533C8.76019 13.7594 8.81481 13.6321 8.81481 13.4993V7.99161C8.81492 7.85995 8.78814 7.72956 8.736 7.6079C8.68386 7.48624 8.60739 7.37571 8.51096 7.28262ZM2.59259 8.49231C2.86763 8.49231 3.13141 8.59781 3.32589 8.78561C3.52037 8.97341 3.62963 9.22812 3.62963 9.49371V13.4993C3.62963 13.6321 3.575 13.7594 3.47776 13.8533C3.38052 13.9472 3.24863 14 3.11111 14H0.518519C0.380999 14 0.249112 13.9472 0.151871 13.8533C0.0546295 13.7594 0 13.6321 0 13.4993V9.49371C0 9.22812 0.109259 8.97341 0.303741 8.78561C0.498223 8.59781 0.761998 8.49231 1.03704 8.49231H2.59259Z" fill="#F3FCF7"/>
</svg>
