<svg width="16" height="13" viewBox="0 0 16 13" fill="none" xmlns="http://www.w3.org/2000/svg">
<path d="M4.35802 11.8739C5.65658 11.8739 6.52518 12.3363 6.90841 12.5971C7.04928 12.6715 7.44853 12.8951 7.53432 12.9024V1.63275C7.02591 0.730827 5.5314 0.00063616 3.98247 0.00063616C2.02629 0.00063616 0.36787 1.07398 0 1.79685V12.3216C0 12.8136 0.305112 13 0.672982 13C0.970082 13 1.1657 12.903 1.35364 12.7538C1.81531 12.3589 2.90257 11.8739 4.35802 11.8739ZM11.65 11.8742C13.1051 11.8742 14.185 12.3589 14.6544 12.7538C14.834 12.8954 15.0299 12.9997 15.327 12.9997C15.6949 12.9997 16 12.8136 16 12.3216V1.79622C15.6321 1.07302 13.9814 0 12.0252 0C10.4763 0 8.98176 0.730191 8.47336 1.63212V12.9176C8.55948 12.91 8.9584 12.6791 9.10695 12.5971C9.4825 12.3363 10.3511 11.8742 11.65 11.8742Z" fill="#D7F560"/>
</svg>
