<svg width="15" height="15" viewBox="0 0 15 15" fill="none" xmlns="http://www.w3.org/2000/svg">
<path d="M0.00861765 10.5192C-0.0581207 12.5375 0.275571 14.1388 0.567552 14.4307C0.859532 14.7226 2.4696 15.0646 4.48009 14.9895L0.00861765 10.5192ZM8.40097 0.227348C6.45721 0.577636 4.40501 1.34493 2.87837 2.87953C1.35173 4.41413 0.575894 6.45748 0.225517 8.40074L6.59069 14.7643C8.54279 14.4224 10.5867 13.6467 12.1133 12.1121C13.6399 10.5775 14.4158 8.53418 14.7661 6.59092L8.40097 0.227348ZM9.83584 6.33237L6.33208 9.83525C6.00673 10.1605 5.48951 10.1605 5.16416 9.83525C4.83881 9.50999 4.83881 8.9929 5.16416 8.66763L8.66792 5.16474C8.99327 4.83948 9.51049 4.83948 9.83584 5.16474C10.1612 5.49001 10.1612 6.0071 9.83584 6.33237ZM14.9914 4.48085C15.0581 2.46252 14.7244 0.861203 14.4324 0.569296C14.1405 0.277389 12.5304 -0.0645593 10.5199 0.0105025L14.9914 4.48085Z" fill="#D7F560"/>
</svg>
