<svg width="12" height="15" viewBox="0 0 12 15" fill="none" xmlns="http://www.w3.org/2000/svg">
<path d="M0.00508498 9.585C0.0864427 8.765 0.335601 7.945 0.818663 7.265C0.854257 7.24 0.839002 7.28 0.839002 7.305C0.777983 7.915 0.92036 8.815 1.66783 8.92C1.17969 7.88 1.14918 6.61 1.50512 5.52C1.53563 5.43 1.58648 5.195 1.62716 5.24C1.62716 5.545 1.96276 6.48 2.58311 6.685C2.60345 6.665 2.49667 6.235 2.49158 6.165C2.42548 5.685 2.4509 5.085 2.60345 4.625C2.78142 4.1 3.18312 3.635 3.71195 3.435C3.7272 3.45 3.61534 3.77 3.60517 3.825C3.44245 4.505 3.56449 5.43 4.04755 5.97C4.20518 6.15 4.55604 6.375 4.55604 5.96C4.55604 5.47 4.22043 4.87 4.0984 4.38C3.71703 2.845 4.31196 1.445 5.49165 0.44C5.67979 0.28 5.89335 0.125 6.10183 0C6.00522 0.21 5.87301 0.405 5.78657 0.62C5.48148 1.375 5.55775 1.945 6.112 2.555C6.47811 2.96 6.89507 3.22 7.1188 3.745C7.35271 4.3 7.4239 4.985 7.41881 5.58L8.74596 3.57C8.78664 3.56 8.77138 3.59 8.77647 3.615C8.79681 3.905 8.7663 4.205 8.79681 4.495C8.85274 5.035 9.02563 5.58 9.21885 6.08C9.27478 6.025 9.27478 5.91 9.30021 5.83C9.39682 5.5 9.54937 5.08 9.7731 4.81C9.79344 4.79 9.92565 4.645 9.94599 4.67C9.88497 5.14 10.0579 5.675 10.2562 6.105C10.4189 6.465 10.668 6.78 10.8155 7.15C11.1562 7.995 11.1104 8.935 10.7901 9.78C11.3392 9.385 11.3952 8.585 11.3647 7.97C11.3596 7.83 11.3087 7.65 11.3087 7.52C11.3087 7.48 11.2935 7.44 11.3494 7.455C11.4969 7.83 11.6647 8.2 11.7715 8.59C11.8782 8.98 11.9393 9.365 11.9799 9.755C11.985 9.815 12.0104 10.065 11.9952 10.19C11.9291 10.475 11.9443 10.83 11.8782 11.135C11.3342 13.66 8.87817 14.865 6.44252 15H5.33402C2.57294 14.825 0.0254244 13.265 0.0254244 10.355C0.0254244 10.255 0 10.225 0 10.035" fill="#D7F560"/>
</svg>
