<svg width="16" height="16" viewBox="0 0 16 16" fill="none" xmlns="http://www.w3.org/2000/svg">
<path d="M15.9314 5.5642C15.9314 5.5642 15.9314 6.35293 15.6227 7.38996L12.183 3.78644C11.9965 3.59073 11.7434 3.48065 11.4794 3.48041H8.42402C8.20136 3.48057 7.98518 3.55894 7.81002 3.70298L6.60393 4.69201C6.52116 4.75997 6.42641 4.81016 6.32511 4.8397C6.2238 4.86925 6.11793 4.87757 6.01355 4.8642C5.90918 4.85083 5.80834 4.81602 5.71681 4.76177C5.62529 4.70752 5.54487 4.63489 5.48016 4.54804C5.34941 4.37239 5.29045 4.1496 5.31621 3.92848C5.34196 3.70736 5.45033 3.50597 5.61756 3.36843L9.73299 0H10.6211C12.0295 0 13.3802 0.586227 14.376 1.62972C15.3719 2.67321 15.9314 4.08848 15.9314 5.5642ZM2.24689 7.8803C2.18048 7.81054 2.10159 7.7552 2.01474 7.71744C1.92789 7.67968 1.83479 7.66024 1.74076 7.66024C1.64673 7.66024 1.55362 7.67968 1.46677 7.71744C1.37992 7.7552 1.30103 7.81054 1.23463 7.8803L0.209751 8.95836C0.0754214 9.09967 0 9.29099 0 9.49044C0 9.68989 0.0754214 9.88121 0.209751 10.0225C0.276158 10.0923 0.355045 10.1476 0.441896 10.1854C0.528746 10.2231 0.621852 10.2426 0.715882 10.2426C0.809913 10.2426 0.903019 10.2231 0.989869 10.1854C1.07672 10.1476 1.15561 10.0923 1.22201 10.0225L2.24689 8.94446C2.38118 8.80327 2.45658 8.61206 2.45658 8.41273C2.45658 8.21339 2.38118 8.02219 2.24689 7.881M3.30628 9.33395C3.37265 9.264 3.45157 9.2085 3.53849 9.17062C3.6254 9.13275 3.71861 9.11325 3.81274 9.11325C3.90688 9.11325 4.00008 9.13275 4.087 9.17062C4.17392 9.2085 4.25283 9.264 4.31921 9.33395C4.45333 9.47523 4.52863 9.6664 4.52863 9.86568C4.52863 10.065 4.45333 10.2561 4.31921 10.3974L3.293 11.4734C3.22664 11.5432 3.14777 11.5986 3.06091 11.6365C2.97406 11.6743 2.88093 11.6937 2.78687 11.6937C2.69282 11.6937 2.59969 11.6743 2.51283 11.6365C2.42598 11.5986 2.3471 11.5432 2.28074 11.4734C2.14661 11.3321 2.07132 11.1409 2.07132 10.9417C2.07132 10.7424 2.14661 10.5512 2.28074 10.4099L3.30628 9.33395ZM6.03906 11.1402C5.97265 11.0705 5.89376 11.0151 5.80691 10.9774C5.72006 10.9396 5.62696 10.9202 5.53293 10.9202C5.4389 10.9202 5.34579 10.9396 5.25894 10.9774C5.17209 11.0151 5.0932 11.0705 5.02679 11.1402L4.00192 12.2169C3.86743 12.3581 3.7919 12.5495 3.7919 12.749C3.7919 12.9485 3.86743 13.1398 4.00192 13.2811C4.06828 13.3509 4.14716 13.4063 4.23401 13.4441C4.32087 13.4819 4.414 13.5014 4.50805 13.5014C4.60211 13.5014 4.69524 13.4819 4.78209 13.4441C4.86895 13.4063 4.94782 13.3509 5.01418 13.2811L6.03906 12.2037C6.17339 12.0624 6.24881 11.8711 6.24881 11.6716C6.24881 11.4722 6.17339 11.2815 6.03906 11.1402ZM7.75825 12.9451C7.69187 12.8752 7.61296 12.8197 7.52604 12.7818C7.43912 12.7439 7.34592 12.7244 7.25178 12.7244C7.15765 12.7244 7.06444 12.7439 6.97752 12.7818C6.89061 12.8197 6.81169 12.8752 6.74532 12.9451L5.72044 14.0225C5.58632 14.1638 5.51102 14.3549 5.51102 14.5542C5.51102 14.7535 5.58632 14.9447 5.72044 15.0859C5.78681 15.1558 5.86568 15.2112 5.95254 15.249C6.03939 15.2868 6.13252 15.3063 6.22658 15.3063C6.32063 15.3063 6.41376 15.2868 6.50062 15.249C6.58747 15.2112 6.66635 15.1558 6.73271 15.0859L7.75758 14.0086C7.89187 13.8674 7.96728 13.6762 7.96728 13.4768C7.96728 13.2775 7.89187 13.0863 7.75758 12.9451M7.32812 0.203093C6.97847 0.0948804 6.61853 0.0272406 6.25479 0.00139095L6.19505 0H5.97467C4.56631 0 3.21563 0.586227 2.21977 1.62972C1.22391 2.67321 0.66444 4.08848 0.66444 5.5642V7.01576C0.992565 6.73602 1.40818 6.594 1.83061 6.61726C2.25304 6.64052 2.65216 6.82741 2.95049 7.14165C3.21136 7.41639 3.37067 7.75789 3.42775 8.114C3.67958 8.05356 3.94119 8.0536 4.193 8.11412C4.44481 8.17464 4.68029 8.29407 4.8818 8.46348C5.08332 8.63288 5.24564 8.84786 5.35662 9.09231C5.4676 9.33677 5.52435 9.60437 5.52264 9.87507C5.7491 9.87396 5.97352 9.91993 6.18291 10.0103C6.39231 10.1007 6.58252 10.2337 6.74253 10.4016C6.90254 10.5695 7.02917 10.769 7.1151 10.9886C7.20104 11.2081 7.24456 11.4434 7.24315 11.6807C7.46908 11.6795 7.69298 11.7254 7.90185 11.8157C8.11072 11.9059 8.30039 12.0388 8.45986 12.2065C8.78048 12.544 8.96048 13.0009 8.96048 13.4772C8.96048 13.9535 8.78048 14.4103 8.45986 14.7479L8.31051 14.9051L9.15616 15.7842C9.29026 15.9225 9.47085 16 9.65898 16C9.84711 16 10.0277 15.9225 10.1618 15.7842C10.4366 15.4991 10.4373 15.0373 10.1631 14.7514C10.0689 14.6535 10.0157 14.5205 10.0151 14.3815C10.0146 14.2425 10.0667 14.109 10.1601 14.0103C10.2535 13.9116 10.3805 13.8559 10.5131 13.8553C10.6458 13.8547 10.7732 13.9093 10.8674 14.0072C11.0015 14.1454 11.1821 14.2229 11.3702 14.2229C11.5583 14.2229 11.7389 14.1454 11.873 14.0072C11.9383 13.9396 11.9901 13.8592 12.0255 13.7705C12.0609 13.6818 12.0792 13.5867 12.0792 13.4906C12.0793 13.3944 12.0612 13.2992 12.0259 13.2105C11.9906 13.1218 11.9389 13.0413 11.8737 12.9736C11.7854 12.8745 11.7372 12.7434 11.7392 12.6079C11.7412 12.4724 11.7932 12.3429 11.8842 12.2466C11.9753 12.1504 12.0985 12.0948 12.2278 12.0916C12.3571 12.0884 12.4826 12.1378 12.5779 12.2294C12.7122 12.3673 12.8927 12.4444 13.0807 12.4441C13.2687 12.4439 13.449 12.3663 13.5829 12.228C13.8643 11.9359 13.863 11.4616 13.5942 11.1813L13.5922 11.1799L12.0967 9.61216C12.0088 9.51327 11.9609 9.38248 11.9632 9.24734C11.9654 9.1122 12.0177 8.98326 12.1089 8.88768C12.2001 8.79211 12.3232 8.73736 12.4521 8.73498C12.5811 8.73259 12.7059 8.78276 12.8003 8.8749L14.55 10.7062C14.8998 11.07 15.4767 11.0735 15.78 10.7584C16.082 10.4447 16.0794 9.84933 15.7329 9.48836L15.7316 9.48696L11.3267 4.87215H8.53885L7.42237 5.78747C7.20229 5.96792 6.95044 6.10116 6.68121 6.1796C6.41197 6.25804 6.13062 6.28012 5.85324 6.2446C5.57585 6.20908 5.30787 6.11664 5.06458 5.97256C4.8213 5.82849 4.60749 5.6356 4.43537 5.40493C4.08759 4.93868 3.93069 4.34683 3.99915 3.75943C4.0676 3.17203 4.35581 2.63714 4.80045 2.27228L7.32812 0.203093Z" fill="#D7F560"/>
</svg>
