<svg width="16" height="15" viewBox="0 0 16 15" fill="none" xmlns="http://www.w3.org/2000/svg">
<path d="M3.99167 0.0709901C4.6994 -0.0545979 5.42517 -0.0131695 6.11549 0.192221C6.8058 0.397612 7.44306 0.761729 7.98028 1.25773L8.00987 1.28521L8.03706 1.26023C8.54979 0.79161 9.15257 0.442249 9.80521 0.235454C10.4578 0.0286584 11.1453 -0.0308165 11.8218 0.0609966L12.0185 0.0909774C12.8711 0.244304 13.6681 0.634927 14.325 1.22148C14.9819 1.80803 15.4743 2.56868 15.75 3.42288C16.0256 4.27707 16.0744 5.19302 15.8911 6.07371C15.7077 6.95441 15.2991 7.76708 14.7085 8.42565L14.5645 8.57972L14.5261 8.61387L8.56882 14.7591C8.43134 14.9008 8.2492 14.9858 8.05615 14.9984C7.8631 15.0109 7.67223 14.9502 7.51889 14.8274L7.44372 14.7591L1.45201 8.57806C0.817267 7.93485 0.365854 7.12122 0.147759 6.22728C-0.0703362 5.33334 -0.0466007 4.39398 0.216336 3.51322C0.479273 2.63246 0.97115 1.84469 1.63749 1.23714C2.30384 0.629587 3.11864 0.225971 3.99167 0.0709901Z" fill="#D7F560"/>
</svg>
