<svg width="16" height="13" viewBox="0 0 16 13" fill="none" xmlns="http://www.w3.org/2000/svg">
<path d="M4.71553 5.67299C5.66863 6.21562 6.50782 6.95268 7.18305 7.83482C7.49149 8.23817 7.76659 8.67344 8 9.13482C8.23619 8.67344 8.50851 8.24107 8.81695 7.83482C9.49218 6.94978 10.3314 6.21272 11.2845 5.67299C12.4432 5.01429 13.7687 4.64286 15.1664 4.64286H15.4415C15.7499 4.64286 16 4.90402 16 5.22612C16 9.52076 12.6683 13 8.55575 13H7.43869C3.33171 13 0 9.52076 0 5.22612C0 4.90402 0.250087 4.64286 0.558527 4.64286H0.833623C2.23411 4.64286 3.55957 5.01429 4.71553 5.67299ZM8.4446 0.174107C8.91421 0.635491 10.1507 2.01384 10.9177 4.30335C9.80513 4.88899 8.81448 5.69865 8.00278 6.68571C7.19139 5.70201 6.20215 4.89241 5.08788 4.30335C5.85481 2.01384 7.09413 0.635491 7.56096 0.174107C7.68044 0.0551339 7.83883 0 8.00278 0C8.16672 0 8.32511 0.0580357 8.4446 0.174107Z" fill="#157A6E"/>
</svg>
