<svg width="14" height="14" viewBox="0 0 14 14" fill="none" xmlns="http://www.w3.org/2000/svg">
<path d="M10.3919 0.16053C10.5188 0.171934 10.5743 0.327025 10.4831 0.417495L4.15781 6.74277C4.08636 6.81427 4.03519 6.90347 4.00956 7.00125L3.24932 9.91301C3.22422 10.0092 3.22472 10.1103 3.25078 10.2063C3.27684 10.3023 3.32755 10.3898 3.39786 10.4601C3.46818 10.5304 3.55567 10.5811 3.65163 10.6072C3.7476 10.6332 3.84872 10.6337 3.94494 10.6086L6.85594 9.84839C6.9538 9.82254 7.04301 9.77111 7.11442 9.69938L13.5294 3.28439C13.5495 3.26379 13.575 3.24937 13.603 3.24283C13.6311 3.2363 13.6603 3.23793 13.6875 3.24753C13.7146 3.25712 13.7384 3.27429 13.756 3.29699C13.7737 3.31969 13.7845 3.34698 13.7871 3.37562C14.0542 5.92217 14.0389 8.49043 13.7415 11.0336C13.572 12.4819 12.408 13.6185 10.9651 13.7804C8.32218 14.0732 5.65502 14.0732 3.01212 13.7804C1.5684 13.6185 0.404463 12.4819 0.234927 11.0336C-0.0783091 8.35373 -0.0783091 5.64649 0.234927 2.96661C0.404463 1.51758 1.5684 0.381003 3.01212 0.21983C5.46355 -0.0519038 7.93637 -0.0717741 10.3919 0.16053Z" fill="#131815"/>
<path d="M11.4151 1.09795C11.4328 1.08025 11.4538 1.06621 11.4768 1.05663C11.4999 1.04705 11.5247 1.04211 11.5497 1.04211C11.5747 1.04211 11.5994 1.04705 11.6225 1.05663C11.6456 1.06621 11.6666 1.08025 11.6843 1.09795L12.7592 2.1737C12.7948 2.20933 12.8147 2.25758 12.8147 2.30789C12.8147 2.35819 12.7948 2.40645 12.7592 2.44207L6.4545 8.74834C6.43052 8.77224 6.4006 8.7893 6.36783 8.79776L4.91271 9.17788C4.88064 9.18625 4.84693 9.18608 4.81494 9.17739C4.78295 9.1687 4.75379 9.1518 4.73035 9.12836C4.70691 9.10493 4.69001 9.07576 4.68132 9.04377C4.67264 9.01179 4.67247 8.97808 4.68083 8.946L5.06096 7.49089C5.06942 7.45811 5.08648 7.42819 5.11038 7.40422L11.4151 1.09795Z" fill="#131815"/>
</svg>
