<svg width="15" height="16" viewBox="0 0 15 16" fill="none" xmlns="http://www.w3.org/2000/svg">
<path d="M10.303 11.5004C10.1318 11.6022 9.92723 11.6318 9.73422 11.5827C9.54122 11.5337 9.37561 11.4099 9.27383 11.2388C9.17204 11.0676 9.14242 10.863 9.19148 10.67C9.24054 10.477 9.36426 10.3114 9.53543 10.2096C10.2555 9.78053 10.8112 9.12281 11.1141 8.34125C11.417 7.55969 11.4496 6.69924 11.2068 5.89699C10.9639 5.09473 10.4596 4.39683 9.7741 3.91445C9.08862 3.43207 8.26142 3.19296 7.42428 3.23523C6.58715 3.27749 5.78824 3.5987 5.15482 4.14766C4.52141 4.69663 4.08993 5.44179 3.92912 6.26442C3.76831 7.08705 3.88743 7.93984 4.2675 8.68692C4.64756 9.434 5.26671 10.0324 6.02631 10.3868C6.20679 10.4709 6.34644 10.6234 6.41455 10.8105C6.48266 10.9976 6.47364 11.2041 6.38948 11.3846C6.30532 11.5651 6.15292 11.7047 5.96579 11.7728C5.77867 11.8409 5.57215 11.8319 5.39167 11.7478C4.32815 11.2516 3.46126 10.4139 2.92913 9.36788C2.397 8.3219 2.23025 7.12792 2.45543 5.97617C2.68061 4.82443 3.28478 3.78117 4.17168 3.01264C5.05857 2.2441 6.17716 1.7945 7.34923 1.73546C8.5213 1.67642 9.67941 2.01134 10.639 2.68686C11.5987 3.36239 12.3046 4.33965 12.6444 5.46294C12.9842 6.58623 12.9382 7.79092 12.5139 8.88507C12.0896 9.97923 11.3113 10.8999 10.303 11.5004Z" fill="#F3FCF7"/>
<path d="M4.78457 8.59749C4.77151 8.49974 4.77783 8.40037 4.80318 8.30507C4.82852 8.20976 4.87238 8.12038 4.93227 8.04203C4.99215 7.96367 5.06689 7.89788 5.1522 7.84841C5.23751 7.79894 5.33173 7.76675 5.42948 7.75369C5.52723 7.74063 5.62659 7.74696 5.7219 7.7723C5.8172 7.79764 5.90658 7.84151 5.98494 7.90139C6.06329 7.96128 6.12908 8.03601 6.17855 8.12132C6.22802 8.20663 6.26021 8.30085 6.27327 8.3986L6.68382 11.4747C6.70701 11.6706 6.65219 11.8677 6.53122 12.0235C6.41024 12.1793 6.23282 12.2812 6.0373 12.3073C5.84178 12.3333 5.64387 12.2814 5.48634 12.1627C5.32881 12.044 5.22432 11.8681 5.19544 11.6729L4.78457 8.59749Z" fill="#F3FCF7"/>
<path d="M3.14788 12.2779C2.95139 12.2709 2.76551 12.187 2.63017 12.0444C2.49483 11.9018 2.42084 11.7118 2.42409 11.5152C2.42734 11.3186 2.50758 11.1311 2.64756 10.993C2.78754 10.855 2.97609 10.7773 3.17271 10.7767L5.95128 10.8231C6.05111 10.8228 6.14999 10.8424 6.24213 10.8808C6.33428 10.9192 6.41785 10.9756 6.48795 11.0467C6.55806 11.1177 6.61328 11.2021 6.6504 11.2947C6.68752 11.3874 6.70579 11.4865 6.70414 11.5864C6.70249 11.6862 6.68095 11.7846 6.64079 11.876C6.60062 11.9674 6.54264 12.0499 6.47023 12.1186C6.39782 12.1873 6.31243 12.2409 6.21906 12.2762C6.12569 12.3115 6.02622 12.3279 5.92646 12.3243L3.14788 12.2779Z" fill="#F3FCF7"/>
</svg>
